<svg width="30" height="30" viewBox="0 0 30 30" fill="none" xmlns="http://www.w3.org/2000/svg">
<path d="M25.932 4.16068C25.4439 3.67252 24.6524 3.67252 24.1643 4.16068L15.0463 13.2787L5.92832 4.16068C5.44017 3.67252 4.64871 3.67252 4.16056 4.16068C3.67239 4.64883 3.67239 5.44029 4.16056 5.92844L13.2785 15.0464L4.16058 24.1643C3.67242 24.6525 3.67242 25.4439 4.16058 25.9322C4.64873 26.4203 5.44019 26.4203 5.92834 25.9322L15.0463 16.8142L24.1643 25.9322C24.6524 26.4203 25.4439 26.4203 25.932 25.9322C26.4201 25.4439 26.4201 24.6525 25.932 24.1644L16.814 15.0464L25.932 5.92844C26.4201 5.44029 26.4201 4.64883 25.932 4.16068Z" fill="white"/>
</svg>
