<svg width="24" height="19" viewBox="0 0 24 19" fill="none" xmlns="http://www.w3.org/2000/svg">
<path d="M1 5C1 3.59986 1 2.8998 1.27249 2.36503C1.51216 1.89461 1.89461 1.51216 2.36503 1.27249C2.8998 1 3.59987 1 5 1H9.34315C9.95462 1 10.2604 1 10.5481 1.06908C10.8031 1.13031 11.047 1.23133 11.2708 1.3684C11.523 1.523 11.7392 1.73919 12.1716 2.17158L12.3284 2.32842C12.7608 2.76081 12.977 2.977 13.2292 3.1316C13.453 3.26867 13.6969 3.36969 13.9519 3.43092C14.2396 3.5 14.5454 3.5 15.1569 3.5H19.5C20.9001 3.5 21.6003 3.5 22.135 3.77249C22.6054 4.01216 22.9879 4.39461 23.2275 4.86503C23.5 5.3998 23.5 6.09987 23.5 7.5V14.5C23.5 15.9001 23.5 16.6003 23.2275 17.135C22.9879 17.6054 22.6054 17.9879 22.135 18.2275C21.6003 18.5 20.9001 18.5 19.5 18.5H5C3.59986 18.5 2.8998 18.5 2.36503 18.2275C1.89461 17.9879 1.51216 17.6054 1.27249 17.135C1 16.6003 1 15.9001 1 14.5V5Z" stroke="white" stroke-linecap="round" stroke-linejoin="round"/>
</svg>
