<svg width="30" height="20" viewBox="0 0 30 20" fill="none" xmlns="http://www.w3.org/2000/svg">
<path d="M30 4H0C0.00293686 3.00634 0.398968 2.05422 1.10159 1.35159C1.80422 0.648968 2.75634 0.252937 3.75 0.25H26.25C27.2437 0.252937 28.1958 0.648968 28.8984 1.35159C29.601 2.05422 29.9971 3.00634 30 4ZM0 7H30V16C29.9971 16.9937 29.601 17.9458 28.8984 18.6484C28.1958 19.351 27.2437 19.7471 26.25 19.75H3.75C2.75634 19.7471 1.80422 19.351 1.10159 18.6484C0.398968 17.9458 0.00293686 16.9937 0 16L0 7ZM3.75 12.25C3.75 12.4489 3.82902 12.6397 3.96967 12.7803C4.11032 12.921 4.30109 13 4.5 13H9C9.19891 13 9.38968 12.921 9.53033 12.7803C9.67098 12.6397 9.75 12.4489 9.75 12.25C9.75 12.0511 9.67098 11.8603 9.53033 11.7197C9.38968 11.579 9.19891 11.5 9 11.5H4.5C4.30109 11.5 4.11032 11.579 3.96967 11.7197C3.82902 11.8603 3.75 12.0511 3.75 12.25ZM3.75 15.25C3.75 15.3485 3.7694 15.446 3.80709 15.537C3.84478 15.628 3.90003 15.7107 3.96967 15.7803C4.03931 15.85 4.12199 15.9052 4.21299 15.9429C4.30398 15.9806 4.40151 16 4.5 16H12.75C12.9489 16 13.1397 15.921 13.2803 15.7803C13.421 15.6397 13.5 15.4489 13.5 15.25C13.5 15.0511 13.421 14.8603 13.2803 14.7197C13.1397 14.579 12.9489 14.5 12.75 14.5H4.5C4.30109 14.5 4.11032 14.579 3.96967 14.7197C3.82902 14.8603 3.75 15.0511 3.75 15.25Z" fill="#F5C826"/>
</svg>
