<svg width="800" height="800" viewBox="0 0 800 800" fill="none" xmlns="http://www.w3.org/2000/svg">
<path d="M66.667 250C66.667 223.801 72.1623 198.886 82.0633 176.344L167.014 261.294C193.049 287.329 235.26 287.329 261.295 261.294C287.33 235.26 287.33 193.049 261.295 167.014L176.344 82.063C198.886 72.162 223.802 66.6666 250 66.6666C351.254 66.6666 433.334 148.748 433.334 250C433.334 276.199 427.837 301.114 417.937 323.656L714.5 620.22C740.537 646.257 740.537 688.467 714.5 714.5C688.467 740.537 646.257 740.537 620.22 714.5L323.656 417.937C301.114 427.837 276.199 433.333 250 433.333C148.748 433.333 66.667 351.253 66.667 250Z" stroke="white" stroke-width="66.6667" stroke-linecap="round" stroke-linejoin="round"/>
</svg>
