<svg width="30" height="30" viewBox="0 0 30 30" fill="none" xmlns="http://www.w3.org/2000/svg">
<path d="M15.003 0C14.421 0 13.9555 0.471716 13.9555 1.0537V20.1858L9.20153 15.4319C8.79108 15.0214 8.12332 15.0214 7.71287 15.4319C7.30242 15.8423 7.30242 16.5101 7.71287 16.9205L14.2618 23.4694C14.4578 23.6655 14.7274 23.7757 15.003 23.7757C15.2848 23.7757 15.5483 23.6655 15.7443 23.4694L22.2932 16.9144C22.7037 16.5039 22.7037 15.8362 22.2932 15.4257C21.8827 15.0153 21.215 15.0153 20.8045 15.4257L16.0506 20.1797V1.0537C16.0567 0.471716 15.585 0 15.003 0Z" fill="white"/>
<path d="M27.9232 28.9524C27.9232 28.3704 27.4515 27.8987 26.8695 27.8987H3.13049C2.5485 27.8987 2.07678 28.3704 2.07678 28.9524C2.07678 29.5344 2.5485 30 3.13049 30H26.8756C27.4576 30.0061 27.9232 29.5344 27.9232 28.9524Z" fill="white"/>
</svg>
