<svg width="20" height="29" viewBox="0 0 20 29" fill="none" xmlns="http://www.w3.org/2000/svg">
<g opacity="0.5" clip-path="url(#clip0_25_184)">
<path fill-rule="evenodd" clip-rule="evenodd" d="M2.57466 0H16.7223C17.622 0 18.4413 0.369697 19.0353 0.963086C19.6303 1.55868 20 2.37851 20 3.27824V27.7157C20 27.9725 19.7912 28.1813 19.5344 28.1813C19.4253 28.1816 19.3195 28.1433 19.2358 28.0733L9.99559 20.881L0.751515 28.0816C0.549862 28.2386 0.2573 28.2033 0.100275 28.0011C0.0364827 27.9197 0.00193947 27.8192 0.00220386 27.7157L0 2.57466C0 1.86832 0.289256 1.22479 0.755923 0.757576C1.2259 0.288705 1.86887 0 2.57466 0ZM10.1807 6.22094L11.1289 8.43968L13.5328 8.65455C13.7047 8.66833 13.7702 8.88486 13.643 8.99395L11.8237 10.5818L12.3614 12.9361C12.4017 13.1063 12.2077 13.2342 12.0661 13.14L9.9989 11.9047L7.92562 13.1449C7.78017 13.2336 7.60055 13.1008 7.63912 12.9361L8.17686 10.5818L6.35758 8.99395C6.227 8.88155 6.29862 8.66778 6.47603 8.65786L8.87383 8.44243L9.82259 6.22094C9.88871 6.06171 10.1135 6.06777 10.1807 6.22094ZM10 3.41818C11.7157 3.41818 13.2716 4.1146 14.3978 5.24133C15.524 6.36585 16.2209 7.92122 16.2209 9.63858C16.2209 11.3559 15.524 12.9119 14.3989 14.0375C13.2733 15.1631 11.7174 15.8595 10 15.8595C8.28209 15.8595 6.72727 15.1631 5.60165 14.0375C4.47603 12.9102 3.77906 11.3543 3.77906 9.63858C3.77906 7.92342 4.47548 6.3686 5.60165 5.24188C6.72948 4.11405 8.2843 3.41818 10 3.41818Z" fill="white"/>
</g>
<defs>
<clipPath id="clip0_25_184">
<rect width="20" height="28.1813" fill="white"/>
</clipPath>
</defs>
</svg>
