<svg width="29" height="27" viewBox="0 0 29 27" fill="none" xmlns="http://www.w3.org/2000/svg">
<path d="M24.2122 9.34894L28.6302 13.3867C29.164 13.8815 29.0117 14.2629 28.2877 14.2629H24.974V24.8124C24.974 25.5364 24.3646 26.1835 23.6407 26.1835H17.8894V18.7942C17.8894 18.0703 17.2422 17.4232 16.5183 17.4232H12.8998C12.1759 17.4232 11.5287 18.0703 11.5287 18.7942V26.1835H5.77743C5.05349 26.1835 4.40633 25.5364 4.40633 24.8124V14.2629H1.13033C0.406395 14.2629 0.254051 13.8815 0.787864 13.3867L13.6993 1.65619C14.2331 1.16138 15.1472 1.16138 15.7176 1.65619L18.6499 4.28381V2.18878C18.6499 1.46484 19.297 0.817688 20.021 0.817688H22.8777C23.6017 0.817688 24.211 1.46484 24.211 2.18878L24.2122 9.34894Z" fill="white"/>
</svg>
