<svg width="30" height="30" viewBox="0 0 30 30" fill="none" xmlns="http://www.w3.org/2000/svg">
<path d="M10.6374 2.50001H19.3625C19.6531 2.49993 19.8759 2.49988 20.0706 2.51893C21.4554 2.6544 22.5889 3.48697 23.0695 4.60847H6.93036C7.411 3.48697 8.54445 2.6544 9.92922 2.51893C10.124 2.49988 10.3468 2.49993 10.6374 2.50001Z" fill="white"/>
<path d="M7.88812 5.90393C6.14984 5.90393 4.72451 6.95362 4.24885 8.34617C4.23894 8.37519 4.22942 8.40438 4.22034 8.43369C4.71802 8.28298 5.23599 8.18452 5.76031 8.11731C7.11079 7.94417 8.81746 7.94426 10.8 7.94437H10.948H19.4151C21.3976 7.94426 23.1044 7.94417 24.4549 8.11731C24.9791 8.18452 25.4971 8.28298 25.9947 8.43369C25.9857 8.40438 25.9762 8.37519 25.9662 8.34617C25.4906 6.95362 24.0652 5.90393 22.327 5.90393H7.88812Z" fill="white"/>
<path fill-rule="evenodd" clip-rule="evenodd" d="M10.8405 9.42755H19.1595C23.378 9.42755 25.4872 9.42755 26.6721 10.6611C27.8569 11.8946 27.5781 13.8004 27.0206 17.612L26.4919 21.2264C26.0546 24.2155 25.8361 25.71 24.7146 26.605C23.5931 27.5 21.939 27.5 18.6308 27.5H11.3692C8.06101 27.5 6.40691 27.5 5.28543 26.605C4.16394 25.71 3.94533 24.2155 3.5081 21.2264L2.97939 17.612C2.42185 13.8004 2.14309 11.8946 3.3279 10.6611C4.51271 9.42755 6.62198 9.42755 10.8405 9.42755ZM10 22.5001C10 21.9824 10.4664 21.5626 11.0417 21.5626H18.9584C19.5336 21.5626 20 21.9824 20 22.5001C20 23.018 19.5336 23.4378 18.9584 23.4378H11.0417C10.4664 23.4378 10 23.018 10 22.5001Z" fill="white"/>
</svg>
