<svg width="36" height="36" viewBox="0 0 36 36" fill="none" xmlns="http://www.w3.org/2000/svg">
<g opacity="0.7">
<path d="M29.2711 18C29.2711 16.5234 30.1922 15.2648 31.5 14.7586C31.1555 13.3172 30.5859 11.9672 29.8336 10.7437C29.3836 10.9406 28.9055 11.0461 28.4203 11.0461C27.5344 11.0461 26.6484 10.7086 25.9664 10.0336C24.9187 8.98594 24.6867 7.44609 25.2492 6.16641C24.0328 5.41406 22.6758 4.84453 21.2414 4.5C20.7422 5.80078 19.4766 6.72891 18 6.72891C16.5234 6.72891 15.2578 5.80078 14.7586 4.5C13.3172 4.84453 11.9672 5.41406 10.7438 6.16641C11.3133 7.43906 11.0742 8.98594 10.0266 10.0336C9.35156 10.7086 8.45859 11.0461 7.57266 11.0461C7.0875 11.0461 6.60938 10.9477 6.15937 10.7437C5.41406 11.9742 4.84453 13.3242 4.5 14.7656C5.80078 15.2648 6.72891 16.5234 6.72891 18.007C6.72891 19.4836 5.80781 20.7422 4.50703 21.2484C4.85156 22.6898 5.42109 24.0398 6.17344 25.2633C6.62344 25.0664 7.10156 24.968 7.57969 24.968C8.46563 24.968 9.35156 25.3055 10.0336 25.9805C11.0742 27.0211 11.3133 28.568 10.7508 29.8406C11.9742 30.593 13.3313 31.1625 14.7656 31.507C15.2648 30.2062 16.5234 29.2852 18 29.2852C19.4766 29.2852 20.7352 30.2062 21.2344 31.507C22.6758 31.1625 24.0258 30.593 25.2492 29.8406C24.6867 28.568 24.9258 27.0281 25.9664 25.9805C26.6414 25.3055 27.5273 24.968 28.4203 24.968C28.8984 24.968 29.3836 25.0664 29.8266 25.2633C30.5789 24.0398 31.1484 22.6828 31.493 21.2484C30.1992 20.7422 29.2711 19.4836 29.2711 18ZM18.0633 23.618C14.9484 23.618 12.4383 21.0937 12.4383 17.993C12.4383 14.8922 14.9484 12.368 18.0633 12.368C21.1781 12.368 23.6883 14.8922 23.6883 17.993C23.6883 21.0937 21.1781 23.618 18.0633 23.618Z" fill="white"/>
</g>
</svg>
