<svg width="56" height="38" viewBox="0 0 56 38" fill="none" xmlns="http://www.w3.org/2000/svg">
<g clip-path="url(#clip0_10_7)">
<path d="M3 7C4.65685 7 6 5.65685 6 4C6 2.34315 4.65685 1 3 1C1.34315 1 0 2.34315 0 4C0 5.65685 1.34315 7 3 7Z" fill="white"/>
<path d="M53.5868 1.80042H12.4934C11.1606 1.80042 10.0801 2.88089 10.0801 4.21373C10.0801 5.54656 11.1606 6.62704 12.4934 6.62704H53.5868C54.9196 6.62704 56.0001 5.54656 56.0001 4.21373C56.0001 2.88089 54.9196 1.80042 53.5868 1.80042Z" fill="white"/>
<path d="M3 21.5C4.65685 21.5 6 20.1569 6 18.5C6 16.8431 4.65685 15.5 3 15.5C1.34315 15.5 0 16.8431 0 18.5C0 20.1569 1.34315 21.5 3 21.5Z" fill="white"/>
<path d="M53.5868 16.2802H12.4934C11.1606 16.2802 10.0801 17.3606 10.0801 18.6935C10.0801 20.0263 11.1606 21.1068 12.4934 21.1068H53.5868C54.9196 21.1068 56.0001 20.0263 56.0001 18.6935C56.0001 17.3606 54.9196 16.2802 53.5868 16.2802Z" fill="white"/>
<path d="M3 37.5C4.65685 37.5 6 36.1569 6 34.5C6 32.8431 4.65685 31.5 3 31.5C1.34315 31.5 0 32.8431 0 34.5C0 36.1569 1.34315 37.5 3 37.5Z" fill="white"/>
<path d="M53.5868 31.9668H12.4934C11.1606 31.9668 10.0801 33.0473 10.0801 34.3801C10.0801 35.7129 11.1606 36.7934 12.4934 36.7934H53.5868C54.9196 36.7934 56.0001 35.7129 56.0001 34.3801C56.0001 33.0473 54.9196 31.9668 53.5868 31.9668Z" fill="white"/>
</g>
<defs>
<clipPath id="clip0_10_7">
<rect width="56" height="38" fill="white"/>
</clipPath>
</defs>
</svg>
