<svg width="30" height="30" viewBox="0 0 30 30" fill="none" xmlns="http://www.w3.org/2000/svg">
<g clip-path="url(#clip0_105_21)">
<path d="M28.625 10.25V10.0625L25.5 3.25C25.4042 3.03027 25.2472 2.84274 25.0477 2.70977C24.8482 2.57679 24.6147 2.50397 24.375 2.5H5.62503C5.38533 2.50397 5.15184 2.57679 4.95237 2.70977C4.75291 2.84274 4.59589 3.03027 4.50003 3.25L1.43753 10.0625V10.25C1.28613 10.8034 1.26375 11.3842 1.3721 11.9477C1.48046 12.5111 1.71666 13.0422 2.06253 13.5C2.53094 14.0578 3.133 14.4878 3.81253 14.75V25.625C3.81253 26.1223 4.01007 26.5992 4.3617 26.9508C4.71333 27.3025 5.19025 27.5 5.68753 27.5H16.875C16.9595 27.51 17.0452 27.5008 17.1256 27.4729C17.206 27.4451 17.279 27.3994 17.3392 27.3392C17.3994 27.279 17.4451 27.206 17.473 27.1256C17.5008 27.0452 17.5101 26.9595 17.5 26.875V16.875H21.875V26.875C21.865 26.9595 21.8742 27.0452 21.9021 27.1256C21.9299 27.206 21.9757 27.279 22.0358 27.3392C22.096 27.3994 22.169 27.4451 22.2495 27.4729C22.3299 27.5008 22.4155 27.51 22.5 27.5H24.375C24.8723 27.5 25.3492 27.3025 25.7009 26.9508C26.0525 26.5992 26.25 26.1223 26.25 25.625V14.75C26.9296 14.4878 27.5316 14.0578 28 13.5C28.3459 13.0422 28.5821 12.5111 28.6905 11.9477C28.7988 11.3842 28.7764 10.8034 28.625 10.25ZM15 23.125H8.12503V16.875H15V23.125ZM26 11.9375C25.8746 12.1179 25.7059 12.264 25.5093 12.3623C25.3127 12.4606 25.0946 12.5079 24.875 12.5H24.25C24.0725 12.5085 23.8951 12.4808 23.7285 12.4186C23.562 12.3565 23.4099 12.2611 23.2813 12.1384C23.1527 12.0157 23.0504 11.8681 22.9806 11.7046C22.9107 11.5412 22.8748 11.3652 22.875 11.1875C22.875 10.856 22.7433 10.538 22.5089 10.3036C22.2745 10.0692 21.9565 9.9375 21.625 9.9375C21.2935 9.9375 20.9756 10.0692 20.7411 10.3036C20.5067 10.538 20.375 10.856 20.375 11.1875C20.3752 11.3652 20.3393 11.5412 20.2695 11.7046C20.1997 11.8681 20.0974 12.0157 19.9688 12.1384C19.8402 12.2611 19.688 12.3565 19.5215 12.4186C19.355 12.4808 19.1776 12.5085 19 12.5H17.625C17.4475 12.5085 17.2701 12.4808 17.1035 12.4186C16.937 12.3565 16.7849 12.2611 16.6563 12.1384C16.5277 12.0157 16.4254 11.8681 16.3556 11.7046C16.2857 11.5412 16.2498 11.3652 16.25 11.1875C16.25 10.856 16.1183 10.538 15.8839 10.3036C15.6495 10.0692 15.3315 9.9375 15 9.9375C14.6685 9.9375 14.3506 10.0692 14.1161 10.3036C13.8817 10.538 13.75 10.856 13.75 11.1875C13.7502 11.3652 13.7143 11.5412 13.6445 11.7046C13.5747 11.8681 13.4724 12.0157 13.3438 12.1384C13.2152 12.2611 13.063 12.3565 12.8965 12.4186C12.73 12.4808 12.5526 12.5085 12.375 12.5H11C10.8225 12.5085 10.6451 12.4808 10.4785 12.4186C10.312 12.3565 10.1599 12.2611 10.0313 12.1384C9.9027 12.0157 9.8004 11.8681 9.73056 11.7046C9.66073 11.5412 9.62483 11.3652 9.62503 11.1875C9.62503 10.856 9.49333 10.538 9.25891 10.3036C9.02449 10.0692 8.70655 9.9375 8.37503 9.9375C8.04351 9.9375 7.72557 10.0692 7.49115 10.3036C7.25673 10.538 7.12503 10.856 7.12503 11.1875C7.12523 11.3652 7.08933 11.5412 7.01949 11.7046C6.94966 11.8681 6.84735 12.0157 6.71878 12.1384C6.5902 12.2611 6.43804 12.3565 6.27152 12.4186C6.10499 12.4808 5.92758 12.5085 5.75003 12.5H5.12503C4.90541 12.5079 4.68732 12.4606 4.49076 12.3623C4.2942 12.264 4.12546 12.1179 4.00003 11.9375C3.80001 11.6684 3.71056 11.333 3.75003 11L6.43753 5H23.5625L26.25 11C26.2895 11.333 26.2 11.6684 26 11.9375Z" fill="white"/>
</g>
<defs>
<clipPath id="clip0_105_21">
<rect width="30" height="30" fill="white"/>
</clipPath>
</defs>
</svg>
